<?xml version="1.0" encoding="utf-8"?>
<!-- Generator: Adobe Illustrator 24.0.0, SVG Export Plug-In . SVG Version: 6.00 Build 0)  -->
<svg version="1.1" id="Layer_1" xmlns="http://www.w3.org/2000/svg" xmlns:xlink="http://www.w3.org/1999/xlink" x="0px" y="0px"
	 viewBox="0 0 612 792" style="enable-background:new 0 0 612 792;" xml:space="preserve">
<style type="text/css">
	.st0{fill:none;stroke:#000000;stroke-width:0.25;stroke-miterlimit:10;}
	.st1{fill:#CF167B;}
</style>
<path class="st0" d="M108.55,381.28c0-21.03-17.11-38.14-38.14-38.14s-38.14,17.11-38.14,38.14c0,19.68,14.98,35.92,34.14,37.93
	v137.25c-2.68,1.43-4.5,4.25-4.5,7.5s1.82,6.06,4.5,7.5v40.06c0,2.21,1.79,4,4,4s4-1.79,4-4v-40.06c2.68-1.43,4.5-4.25,4.5-7.5
	s-1.82-6.06-4.5-7.5V419.21C93.57,417.2,108.55,400.96,108.55,381.28z M40.27,381.28c0-16.62,13.52-30.14,30.14-30.14
	c16.62,0,30.14,13.52,30.14,30.14s-13.52,30.14-30.14,30.14C53.79,411.42,40.27,397.9,40.27,381.28z"/>
<path class="st0" d="M204.82,381.28c0-21.03-17.11-38.14-38.14-38.14s-38.14,17.11-38.14,38.14c0,19.68,14.98,35.92,34.14,37.93
	v137.25c-2.68,1.43-4.5,4.25-4.5,7.5s1.82,6.06,4.5,7.5v40.06c0,2.21,1.79,4,4,4s4-1.79,4-4v-40.06c2.68-1.43,4.5-4.25,4.5-7.5
	s-1.82-6.06-4.5-7.5V419.21C189.84,417.2,204.82,400.96,204.82,381.28z M136.54,381.28c0-16.62,13.52-30.14,30.14-30.14
	c16.62,0,30.14,13.52,30.14,30.14s-13.52,30.14-30.14,30.14C150.06,411.42,136.54,397.9,136.54,381.28z"/>
<path class="st0" d="M301.08,381.28c0-21.03-17.11-38.14-38.14-38.14s-38.14,17.11-38.14,38.14c0,19.68,14.98,35.92,34.14,37.93
	v137.25c-2.68,1.43-4.5,4.25-4.5,7.5s1.82,6.06,4.5,7.5v40.06c0,2.21,1.79,4,4,4s4-1.79,4-4v-40.06c2.68-1.43,4.5-4.25,4.5-7.5
	s-1.82-6.06-4.5-7.5V419.21C286.1,417.2,301.08,400.96,301.08,381.28z M232.8,381.28c0-16.62,13.52-30.14,30.14-30.14
	c16.62,0,30.14,13.52,30.14,30.14s-13.52,30.14-30.14,30.14C246.32,411.42,232.8,397.9,232.8,381.28z"/>
<path class="st0" d="M503.08,260.3c0-132.78-107.64-240.41-240.41-240.41S22.26,127.53,22.26,260.3v76.33h480.82V260.3z"/>
<path class="st1" d="M147.85,123.02c-0.96,0-1.88,0.14-2.77,0.37c-0.92-3.79-4.33-6.62-8.41-6.62c-0.26,0-0.52,0.02-0.77,0.04
	c-2.01-2.53-5.11-4.17-8.59-4.17c-6.05,0-10.97,4.92-10.97,10.97c0,0.72,0.07,1.43,0.21,2.12c-4.53,0.78-8,4.74-8,9.49
	c0,5.32,4.32,9.64,9.64,9.64v0l29.65,0.17v0c0,0,0,0,0.01,0c6.07,0,11.01-4.94,11.01-11.01
	C158.86,127.95,153.92,123.02,147.85,123.02z"/>
<g>
	<path class="st1" d="M205.97,79.09c-0.96,0-1.88,0.14-2.77,0.37c-0.92-3.79-4.33-6.62-8.41-6.62c-0.26,0-0.52,0.02-0.77,0.04
		c-2.01-2.53-5.11-4.17-8.59-4.17c-6.05,0-10.97,4.92-10.97,10.97c0,0.72,0.07,1.43,0.21,2.12c-4.53,0.78-8,4.74-8,9.49
		c0,5.32,4.32,9.64,9.64,9.64v0l29.65,0.17v0c0,0,0,0,0.01,0c6.07,0,11.01-4.94,11.01-11.01C216.98,84.03,212.04,79.09,205.97,79.09
		z"/>
	<g>
		<path class="st1" d="M183.07,103.24c-0.77-0.29-1.64,0.1-1.93,0.88l-1.57,4.18c-0.29,0.78,0.1,1.64,0.88,1.93
			c0.17,0.07,0.35,0.1,0.53,0.1c0.61,0,1.18-0.37,1.4-0.97l1.57-4.18C184.24,104.39,183.85,103.53,183.07,103.24z"/>
		<path class="st1" d="M187.51,109.4c-0.77-0.29-1.64,0.1-1.93,0.88l-1.57,4.18c-0.29,0.78,0.1,1.64,0.88,1.93
			c0.17,0.07,0.35,0.1,0.53,0.1c0.61,0,1.18-0.37,1.4-0.97l1.57-4.18C188.68,110.55,188.29,109.69,187.51,109.4z"/>
		<path class="st1" d="M193.86,101.96c-0.77-0.29-1.64,0.1-1.93,0.88l-1.57,4.18c-0.29,0.78,0.1,1.64,0.88,1.93
			c0.17,0.07,0.35,0.1,0.53,0.1c0.61,0,1.18-0.37,1.4-0.97l1.57-4.18C195.03,103.12,194.64,102.25,193.86,101.96z"/>
		<path class="st1" d="M197.1,108.5c-0.78-0.29-1.64,0.1-1.93,0.88l-1.57,4.18c-0.29,0.78,0.1,1.64,0.88,1.93
			c0.17,0.07,0.35,0.1,0.53,0.1c0.61,0,1.18-0.37,1.4-0.97l1.57-4.18C198.27,109.66,197.88,108.79,197.1,108.5z"/>
		<path class="st1" d="M203.87,102.39c-0.77-0.29-1.64,0.1-1.93,0.88l-1.57,4.18c-0.29,0.78,0.1,1.64,0.88,1.93
			c0.17,0.07,0.35,0.1,0.53,0.1c0.61,0,1.18-0.37,1.4-0.97l1.57-4.18C205.04,103.55,204.65,102.69,203.87,102.39z"/>
	</g>
</g>
<g>
	<path class="st1" d="M406.5,117.82c-0.96,0-1.88,0.14-2.77,0.37c-0.92-3.79-4.33-6.62-8.41-6.62c-0.26,0-0.52,0.02-0.77,0.04
		c-2.01-2.53-5.11-4.17-8.59-4.17c-6.05,0-10.97,4.92-10.97,10.97c0,0.72,0.07,1.43,0.21,2.12c-4.53,0.78-8,4.74-8,9.49
		c0,5.32,4.32,9.64,9.64,9.64v0l29.65,0.17v0c0,0,0,0,0.01,0c6.07,0,11.01-4.94,11.01-11.01
		C417.5,122.76,412.57,117.82,406.5,117.82z"/>
	<path class="st1" d="M395.75,145.62c-0.22-0.58-0.78-0.96-1.4-0.96h-0.86l1.6-1.75c0.4-0.44,0.51-1.07,0.27-1.62
		c-0.24-0.54-0.78-0.9-1.37-0.9h-3.73c-0.42,0-0.82,0.18-1.11,0.49l-4.99,5.46c-0.4,0.44-0.5,1.07-0.27,1.62
		c0.24,0.54,0.78,0.89,1.37,0.89h2.17l-3.4,4.76c-0.45,0.62-0.35,1.49,0.23,1.99c0.28,0.25,0.64,0.38,0.99,0.38
		c0.36,0,0.73-0.13,1.01-0.39l9.1-8.33C395.82,146.85,395.97,146.2,395.75,145.62z"/>
</g>
<path class="st1" d="M353.03,88.93h-2.19l0.67-0.84c0.69-0.87,0.54-2.12-0.32-2.81c-0.86-0.69-2.12-0.54-2.81,0.32l-2.64,3.33h-8.65
	l6.01-6.01l4.55,0.52c0.08,0.01,0.15,0.01,0.23,0.01c1,0,1.87-0.75,1.98-1.77c0.12-1.1-0.66-2.09-1.76-2.21l-1.39-0.16l1.66-1.66
	c0.78-0.78,0.78-2.05,0-2.83s-2.05-0.78-2.83,0l-1.55,1.55l-0.12-1.07c-0.13-1.1-1.14-1.88-2.22-1.76c-1.1,0.13-1.88,1.12-1.76,2.22
	l0.49,4.22l-6.11,6.11v-8.5l3.59-2.85c0.86-0.69,1.01-1.95,0.32-2.81c-0.69-0.86-1.95-1.01-2.81-0.32l-1.1,0.87v-2.35
	c0-1.1-0.9-2-2-2s-2,0.9-2,2v2.19l-0.84-0.67c-0.87-0.69-2.12-0.54-2.81,0.32c-0.69,0.87-0.54,2.12,0.32,2.81l3.33,2.64v8.7
	l-6.08-6.08l0.52-4.6c0.12-1.1-0.66-2.09-1.76-2.21c-1.09-0.12-2.09,0.66-2.21,1.76l-0.16,1.44l-1.62-1.62
	c-0.78-0.78-2.05-0.78-2.83,0s-0.78,2.05,0,2.83l1.46,1.46l-1.02,0.12c-1.1,0.13-1.88,1.12-1.76,2.22c0.12,1.02,0.98,1.77,1.98,1.77
	c0.08,0,0.15,0,0.23-0.01l4.17-0.48l6.21,6.21h-8.55l-2.88-3.62c-0.69-0.86-1.95-1.01-2.81-0.32c-0.86,0.69-1.01,1.95-0.32,2.81
	l0.9,1.13h-2.29c-1.1,0-2,0.9-2,2s0.9,2,2,2h2.07l-0.64,0.8c-0.69,0.87-0.54,2.12,0.32,2.81c0.37,0.29,0.81,0.43,1.24,0.43
	c0.59,0,1.17-0.26,1.57-0.76l2.61-3.29h8.79l-6.04,6.04l-4.6-0.52c-1.08-0.12-2.09,0.66-2.21,1.76c-0.12,1.1,0.66,2.09,1.76,2.21
	l1.44,0.16l-1.62,1.62c-0.78,0.78-0.78,2.05,0,2.83c0.39,0.39,0.9,0.59,1.41,0.59s1.02-0.2,1.41-0.59l1.46-1.46l0.12,1.02
	c0.12,1.02,0.98,1.77,1.98,1.77c0.08,0,0.15,0,0.23-0.01c1.1-0.13,1.88-1.12,1.76-2.22l-0.48-4.17l6.21-6.21v8.55l-3.62,2.88
	c-0.86,0.69-1.01,1.95-0.32,2.81c0.39,0.5,0.98,0.75,1.57,0.75c0.44,0,0.88-0.14,1.24-0.44l1.13-0.9v2.29c0,1.1,0.9,2,2,2s2-0.9,2-2
	v-2.07l0.8,0.64c0.87,0.69,2.12,0.54,2.81-0.32c0.69-0.87,0.54-2.12-0.32-2.81l-3.29-2.61v-8.74l5.97,5.97l-0.52,4.55
	c-0.12,1.1,0.66,2.09,1.76,2.21c0.08,0.01,0.15,0.01,0.23,0.01c1,0,1.87-0.75,1.98-1.77l0.16-1.39l1.66,1.66
	c0.39,0.39,0.9,0.59,1.41,0.59s1.02-0.2,1.41-0.59c0.78-0.78,0.78-2.05,0-2.83l-1.55-1.55l1.07-0.12c1.1-0.13,1.88-1.12,1.76-2.22
	c-0.13-1.1-1.14-1.88-2.22-1.76l-4.22,0.49l-6.12-6.12h8.5l2.85,3.59c0.39,0.5,0.98,0.75,1.57,0.75c0.44,0,0.88-0.14,1.24-0.44
	c0.86-0.69,1.01-1.95,0.32-2.81l-0.87-1.1h2.35c1.1,0,2-0.9,2-2S354.13,88.93,353.03,88.93z"/>
<path class="st1" d="M286.93,75.59l-6.34-3.26l1.88-2.19c0.37-0.43,0.46-1.02,0.25-1.54s-0.7-0.88-1.26-0.93l-2.84-0.25l2.15-6.7
	c0.17-0.54,0.03-1.12-0.37-1.52c-0.4-0.4-0.98-0.54-1.52-0.37L272.09,61l-0.22-2.87c-0.04-0.56-0.4-1.05-0.91-1.27
	c-0.52-0.21-1.11-0.13-1.54,0.23l-2.19,1.83L264,52.67c-0.26-0.5-0.77-0.81-1.33-0.81s-1.08,0.31-1.33,0.81L258.08,59l-2.19-1.88
	c-0.43-0.37-1.02-0.46-1.54-0.25c-0.52,0.21-0.88,0.7-0.93,1.26l-0.25,2.84l-6.7-2.15c-0.54-0.17-1.12-0.03-1.52,0.37
	c-0.4,0.4-0.54,0.98-0.37,1.52l2.17,6.79l-2.87,0.22c-0.56,0.04-1.05,0.4-1.27,0.91c-0.22,0.52-0.13,1.11,0.23,1.54l1.83,2.19
	l-6.26,3.22c-0.5,0.26-0.81,0.77-0.81,1.33s0.31,1.08,0.81,1.33l6.34,3.26l-1.88,2.19c-0.37,0.43-0.46,1.02-0.25,1.54
	c0.21,0.52,0.7,0.88,1.26,0.93l2.84,0.25l-2.15,6.7c-0.17,0.53-0.03,1.12,0.37,1.52c0.29,0.29,0.67,0.44,1.06,0.44
	c0.15,0,0.31-0.02,0.46-0.07l6.79-2.17l0.22,2.87c0.04,0.56,0.4,1.05,0.91,1.27c0.19,0.08,0.39,0.12,0.58,0.12
	c0.35,0,0.69-0.12,0.96-0.35l2.19-1.83l3.22,6.26c0.26,0.5,0.77,0.81,1.33,0.81s1.08-0.31,1.33-0.81l3.26-6.34l2.19,1.88
	c0.28,0.24,0.62,0.36,0.98,0.36c0.19,0,0.38-0.04,0.57-0.11c0.52-0.21,0.88-0.7,0.93-1.26l0.25-2.84l6.7,2.15
	c0.15,0.05,0.3,0.07,0.46,0.07c0.39,0,0.77-0.15,1.06-0.44c0.4-0.4,0.54-0.98,0.37-1.52l-2.17-6.79l2.87-0.22
	c0.56-0.04,1.05-0.4,1.27-0.91s0.13-1.11-0.23-1.54l-1.83-2.19l6.26-3.22c0.5-0.26,0.81-0.77,0.81-1.33S287.43,75.85,286.93,75.59z"
	/>
<circle class="st0" cx="262.65" cy="260.37" r="7.2"/>
<g>
</g>
<g>
</g>
<g>
</g>
<g>
</g>
<g>
</g>
<g>
</g>
</svg>
