<?xml version="1.0" encoding="utf-8"?>
<!-- Generator: Adobe Illustrator 15.0.0, SVG Export Plug-In . SVG Version: 6.00 Build 0)  -->
<!DOCTYPE svg PUBLIC "-//W3C//DTD SVG 1.1//EN" "http://www.w3.org/Graphics/SVG/1.1/DTD/svg11.dtd">
<svg version="1.1" id="Layer_1" xmlns="http://www.w3.org/2000/svg" xmlns:xlink="http://www.w3.org/1999/xlink" x="0px" y="0px"
	 width="1224px" height="792px" viewBox="0 0 1224 792" enable-background="new 0 0 1224 792" xml:space="preserve">
<path fill="none" stroke="#000000" stroke-miterlimit="10" d="M1222.999,556.838"/>
<path fill="none" stroke="#000000" stroke-miterlimit="10" d="M1213.999,565.838h-43.667c-4.971,0-9-4.029-9-9l0,0
	c0-4.971,4.029-9,9-9h43.667"/>
<path fill="none" stroke="#000000" stroke-miterlimit="10" d="M1213.999,653.153h-43.667c-4.971,0-9-4.029-9-9l0,0
	c0-4.971,4.029-9,9-9h43.667"/>
<path fill="#FFFFFF" stroke="#000000" stroke-miterlimit="10" d="M10.001,548.019"/>
<line fill="none" stroke="#000000" stroke-miterlimit="10" x1="12.337" y1="539.333" x2="20.837" y2="548.019"/>
<polyline fill="#FFFFFF" stroke="#000000" stroke-miterlimit="10" points="18.871,566.019 20.837,566.019 12.337,574.167 "/>
<path fill="#FFFFFF" stroke="#000000" stroke-miterlimit="10" d="M-78.54,562.709"/>
<line fill="#FFFFFF" stroke="#000000" stroke-miterlimit="10" x1="20.837" y1="635.334" x2="12.337" y2="628.77"/>
<line fill="#FFFFFF" stroke="#000000" stroke-miterlimit="10" x1="20.837" y1="653.334" x2="12.337" y2="660.417"/>
<path fill="#FFFFFF" stroke="#000000" stroke-miterlimit="10" d="M8.333,715.108"/>
<path fill="#FFFFFF" stroke="#000000" stroke-miterlimit="10" d="M8.333,747.985"/>
<line fill="none" stroke="#000000" stroke-miterlimit="10" x1="1212.499" y1="539.827" x2="1203.999" y2="548.513"/>
<line fill="#FFFFFF" stroke="#000000" stroke-miterlimit="10" x1="1203.999" y1="566.513" x2="1212.499" y2="574.661"/>
<line fill="#FFFFFF" stroke="#000000" stroke-miterlimit="10" x1="1203.999" y1="635.828" x2="1212.499" y2="629.264"/>
<line fill="#FFFFFF" stroke="#000000" stroke-miterlimit="10" x1="1203.999" y1="653.828" x2="1212.499" y2="660.911"/>
<path fill="#FFFFFF" stroke="#000000" stroke-miterlimit="10" d="M1208.334,715.603"/>
<path fill="none" stroke="#000000" stroke-miterlimit="10" d="M105.916,778.333h29.714l4.576-4.575V570.563
	c0-5.021,4.07-9.091,9.091-9.091s9.091,4.07,9.091,9.091v203.194l4.576,4.575h29.713l4.576-4.575V570.563
	c0-5.021,4.07-9.091,9.091-9.091s9.091,4.07,9.091,9.091v203.194l4.576,4.575h29.714l4.575-4.575V570.563
	c0-5.021,4.07-9.091,9.091-9.091s9.091,4.07,9.091,9.091v203.194l4.575,4.575h29.714l4.575-4.575V570.563
	c0-5.021,4.07-9.091,9.091-9.091s9.091,4.07,9.091,9.091v203.194l4.575,4.575h29.714l4.576-4.575V570.563
	c0-5.021,4.07-9.091,9.091-9.091s9.091,4.07,9.091,9.091v203.194l4.576,4.575h29.713l4.576-4.575V570.563
	c0-5.021,4.07-9.091,9.091-9.091s9.091,4.07,9.091,9.091v203.194l4.576,4.575h29.714l4.575-4.575V570.563
	c0-5.021,4.07-9.091,9.091-9.091s9.091,4.07,9.091,9.091v203.194l4.575,4.575h29.714l4.575-4.575V570.563
	c0-5.021,4.07-9.091,9.091-9.091s9.091,4.07,9.091,9.091v203.194l4.575,4.575h29.714l4.576-4.575V570.563
	c0-5.021,4.07-9.091,9.09-9.091c5.021,0,9.091,4.07,9.091,9.091v203.194l4.575,4.575h29.715l4.575-4.575V570.563
	c0-5.021,4.07-9.091,9.092-9.091c5.02,0,9.09,4.07,9.09,9.091v203.194l4.575,4.575h29.714l4.575-4.575V570.563
	c0-5.021,4.07-9.091,9.091-9.091s9.091,4.07,9.091,9.091v203.194l4.575,4.575h29.714l4.575-4.575V570.563
	c0-5.021,4.07-9.091,9.091-9.091s9.091,4.07,9.091,9.091v203.194l4.575,4.575h29.714l4.575-4.575V570.563
	c0-5.021,4.07-9.091,9.091-9.091s9.091,4.07,9.091,9.091v203.194l4.575,4.575h29.715l4.575-4.575V570.563
	c0-5.021,4.07-9.091,9.091-9.091s9.091,4.07,9.091,9.091v203.194l4.575,4.575h29.714l4.575-4.575V570.563
	c0-5.021,4.07-9.091,9.091-9.091s9.091,4.07,9.091,9.091v203.194l4.575,4.575h29.714l4.575-4.575V570.563
	c0-5.021,4.07-9.091,9.091-9.091s9.091,4.07,9.091,9.091v203.194l4.575,4.575h29.715l4.575-4.575V570.563
	c0-5.021,4.07-9.091,9.09-9.091c5.021,0,9.092,4.07,9.092,9.091v203.194l4.575,4.575h60.714"/>
<path fill="none" stroke="#000000" stroke-miterlimit="10" d="M20.837,548.019h36.497c4.971,0,9,4.029,9,9s-4.029,9-9,9H13.668
	c-0.57,0-1.126-0.06-1.667-0.16v69.636c0.541-0.102,1.097-0.16,1.667-0.16h43.667c4.971,0,9,4.029,9,9s-4.029,9-9,9H13.668
	c-0.57,0-1.126-0.059-1.667-0.16v61.935v25.734v2.808v4.336v12.347c0,9.941,8.059,18,18,18h75.916"/>
<path fill="none" stroke="#000000" stroke-miterlimit="10" d="M1136.415,778.333H1194c9.941,0,18-8.059,18-18V508.332
	c0-9.941-8.059-18-18-18h-44.826c-0.098,4.58-3.834,8.265-8.437,8.265c-4.665,0-8.446-3.781-8.446-8.446
	c0-4.641,3.743-8.403,8.376-8.441V284.974c-5.014-0.261-9.001-4.396-9.001-9.475c0-5.247,4.253-9.5,9.5-9.5
	c4.735,0,8.65,3.469,9.37,8.001H1194c9.941,0,18-8.059,18-18V128c0-9.941-8.059-18-18-18h-43.402c0.041,0.328,0.069,0.661,0.069,1
	c0,4.418-3.582,8-8,8s-8-3.582-8-8c0-3.727,2.552-6.849,6-7.738V92V66V27.001c0-9.941-8.059-18-18-18h-1021c-9.941,0-18,8.059-18,18
	V66v26v10c4.418,0,8,3.582,8,8s-3.582,8-8,8s-8-3.582-8-8H30c-9.941,0-18,8.059-18,18v128c0,9.941,8.059,18,18,18h44.691
	c-0.009-0.167-0.025-0.331-0.025-0.499c0-5.247,4.253-9.5,9.5-9.5s9.5,4.253,9.5,9.5s-4.253,9.5-9.5,9.5
	c-0.168,0-0.333-0.017-0.499-0.025v198.062c0.16-0.009,0.318-0.024,0.48-0.024c5.021,0,9.091,4.07,9.091,9.091
	s-4.07,9.091-9.091,9.091c-4.944,0-8.958-3.949-9.079-8.863H30c-9.941,0-18,8.059-18,18l0.337,31.001"/>
<circle fill="none" stroke="#000000" stroke-miterlimit="10" cx="920" cy="376" r="5.85"/>
<circle fill="none" stroke="#000000" stroke-miterlimit="10" cx="251" cy="376" r="5.85"/>
</svg>
