<?xml version="1.0" encoding="utf-8"?>
<!-- Generator: Adobe Illustrator 23.0.2, SVG Export Plug-In . SVG Version: 6.00 Build 0)  -->
<svg version="1.1" id="Layer_1" xmlns="http://www.w3.org/2000/svg" xmlns:xlink="http://www.w3.org/1999/xlink" x="0px" y="0px"
	 width="612px" height="792px" viewBox="0 0 612 792" style="enable-background:new 0 0 612 792;" xml:space="preserve">
<style type="text/css">
	.st0{fill:none;stroke:#D01F40;stroke-miterlimit:10;}
	.st1{fill:none;stroke:#231F20;stroke-miterlimit:10;}
</style>
<g id="Layer_3">
	<path class="st0" d="M491,309l-29.3-26.5l-24.4-95.7L306,96.7l-127.6,54.1L159,202.9l-35.7,13.8l-22,43.9c0,0,2.4,3.7,6,10.5
		c0.7,1.2,1.4,2.6,2.1,4c1.5,2.9,3.1,6.2,4.7,9.9c3.8,8.3,7.9,18.5,11.7,30.3c0.4,1.3,0.9,2.6,1.3,4c1.3,4.1,2.5,8.3,3.7,12.7
		c0.8,2.9,1.5,6,2.2,9s1.4,6.2,2,9.5c0.3,1.6,0.6,3.2,0.9,4.9c3,16.5,4.8,34.6,4.6,54.1c0,1.9-0.1,3.9-0.1,5.9
		c-0.2,7.9-0.8,16-1.8,24.2c-0.5,4.1-1.1,8.3-1.8,12.5c-0.7,4.2-1.5,8.5-2.4,12.7c-0.9,4.3-1.9,8.6-3.1,13c-0.6,2.2-1.2,4.4-1.8,6.6
		c-1.3,4.4-2.7,8.8-4.2,13.3c-0.8,2.2-1.6,4.5-2.4,6.7c-2.5,6.7-5.3,13.5-8.4,20.4c-1,2.3-2.1,4.6-3.2,6.9
		c0,0.4,34.8,75.4,34.8,75.4l155.4,62.5l29-19.3l32.6,30.5l64.8-38.9l80-139.1L491,309z"/>
	<path class="st0" d="M492.7,352.1"/>
	<path class="st0" d="M459.8,410.7"/>
	<path class="st0" d="M146.1,606.9"/>
</g>
<g>
	<polyline class="st1" points="193.6,189.5 201.5,163.5 306,122.2 419.3,198.9 482,501 	"/>
	<polyline class="st1" points="353.2,635 371.4,650.8 412.3,625.6 482,501 	"/>
	<polyline class="st1" points="159,202.9 306,146.2 396.9,208.2 460,497.1 396.9,606.1 330.5,650.1 	"/>
	<g>
		<path class="st1" d="M136.6,453.3c14.8-7.6,31.6-12,49.4-12c59.5,0,107.7,48.2,107.7,107.7c0,40.8-22.7,76.4-56.2,94.6"/>
		<path class="st1" d="M124.9,498.5c14.5-17.5,36.5-28.7,61-28.7c43.7,0,79.2,35.5,79.2,79.2c0,39.9-29.6,73-68,78.4"/>
	</g>
	<polyline class="st1" points="293.7,549 351.3,454.8 309.5,261.8 193.6,189.5 	"/>
	<polyline class="st1" points="337,388.7 406.2,429.5 430.2,548.6 	"/>
	<polyline class="st1" points="445.8,431.9 265.2,323.9 235.1,173.6 	"/>
	<line class="st1" x1="285" y1="506.6" x2="343.3" y2="417.9"/>
	<path class="st1" d="M162,444c0.7-4.2,1.2-7.7,1.7-11.9c1-8.3,1.6-16.3,1.8-24.2c0.1-2,0.1-3.9,0.1-5.9c0.2-19.4-1.6-37.6-4.6-54.1
		c-0.3-1.6-0.6-3.3-0.9-4.9c-0.6-3.2-1.3-6.4-2-9.5s-1.5-6.1-2.2-9c-1.2-4.4-2.4-8.7-3.7-12.7c-0.4-1.4-0.8-2.7-1.3-4
		c-3.9-11.8-8-22-11.7-30.3c-1.7-3.7-3.3-7-4.7-9.9c-0.7-1.4-1.4-2.8-2.1-4c-3.6-6.8-6-10.5-6-10.5l100.2-43.1"/>
</g>
</svg>
