<?xml version="1.0" encoding="utf-8"?>
<!-- Generator: Adobe Illustrator 23.0.2, SVG Export Plug-In . SVG Version: 6.00 Build 0)  -->
<svg version="1.1" xmlns="http://www.w3.org/2000/svg" xmlns:xlink="http://www.w3.org/1999/xlink" x="0px" y="0px" width="792px"
	 height="612px" viewBox="0 0 792 612" enable-background="new 0 0 792 612" xml:space="preserve">
<g id="SCORE">
	<path fill="none" stroke="#000000" stroke-miterlimit="10" d="M552.03003,227.13705"/>
	<path fill="none" stroke="#000000" stroke-miterlimit="10" d="M544.06091,386.37973"/>
	<polyline fill="none" stroke="#000000" stroke-miterlimit="10" points="544.06091,386.37973 461.98004,375.87704 
		432.93005,372.15704 175.70004,339.23706 	"/>
	<path fill="none" stroke="#000000" stroke-miterlimit="10" d="M707.26001,305.28705"/>
	<path fill="none" stroke="#000000" stroke-miterlimit="10" d="M620.64001,301.06705"/>
	<polyline fill="none" stroke="#000000" stroke-miterlimit="10" points="620.64001,301.06705 602.36005,318.94705 
		181.93004,318.59705 	"/>
	<path fill="none" stroke="#000000" stroke-miterlimit="10" d="M715.14001,208.64706"/>
	<line fill="none" stroke="#000000" stroke-miterlimit="10" x1="162.61005" y1="271.28705" x2="552.03003" y2="227.13705"/>
	<polyline fill="none" stroke="#000000" stroke-miterlimit="10" points="313.17505,293.79706 334.13754,272.83456 
		635.10004,240.79706 	"/>
	<line fill="none" stroke="#000000" stroke-miterlimit="10" x1="176.75743" y1="289.50186" x2="279.42783" y2="278.57257"/>
	<polyline fill="none" stroke="#000000" stroke-miterlimit="10" points="215.09581,344.25534 236.0583,365.21783 
		425.10004,414.17719 	"/>
	<polyline fill="none" stroke="#000000" stroke-miterlimit="10" points="482.10004,281.79706 551.10004,275.79706 
		587.11157,245.90544 	"/>
	<line fill="none" stroke="#000000" stroke-miterlimit="10" x1="515.33344" y1="212.79706" x2="541.73236" y2="164.35039"/>
	<polyline fill="none" stroke="#000000" stroke-miterlimit="10" points="249.17456,216.77054 291.10004,240.79706 
		456.24866,221.03569 	"/>
	<g>
		<path fill="none" stroke="#000000" stroke-miterlimit="10" d="M177.72005,291.60706c2.87,6.66,4.45999,14.01001,4.45999,21.72
			c0,1.78-0.08,3.53-0.25,5.26999c-0.67999,7.10001-2.70999,13.82001-5.83,19.88c-0.12999,0.25-0.25999,0.51001-0.39999,0.76001
			c-2.94,5.48999-6.78,10.41998-11.33,14.59c-9.78,8.97-22.83,14.45001-37.14,14.45001c-30.34,0-54.94-24.60001-54.94-54.95001
			c0-27.60001,20.35-50.44,46.86-54.35001c2.64-0.38998,5.34-0.59,8.08-0.59c13.47,0,25.81999,4.85001,35.38,12.89999
			c2.78999,2.35001,5.34,4.97,7.61,7.82001C173.25005,282.89706,175.78004,287.09705,177.72005,291.60706z"/>
		<circle fill="none" stroke="#000000" stroke-miterlimit="10" cx="127.23504" cy="313.33206" r="31.865"/>
	</g>
	<path fill="none" stroke="#000000" stroke-miterlimit="10" d="M177.72005,291.60706c2.87,6.66,4.45999,14.01001,4.45999,21.72
		c0,1.78-0.08,3.53-0.25,5.26999c-0.67999,7.10001-2.70999,13.82001-5.83,19.88c-0.12999,0.25-0.25999,0.51001-0.39999,0.76001
		c-2.94,5.48999-6.78,10.41998-11.33,14.59c-9.78,8.97-22.83,14.45001-37.14,14.45001c-30.34,0-54.94-24.60001-54.94-54.95001
		c0-27.60001,20.35-50.44,46.86-54.35001c2.64-0.38998,5.34-0.59,8.08-0.59c13.47,0,25.81999,4.85001,35.38,12.89999
		c2.78999,2.35001,5.34,4.97,7.61,7.82001C173.25005,282.89706,175.78004,287.09705,177.72005,291.60706z"/>
	<circle fill="none" stroke="#000000" stroke-miterlimit="10" cx="127.23504" cy="313.33206" r="31.865"/>
	<polyline fill="none" stroke="#000000" stroke-miterlimit="10" points="175.70004,258.38705 196.66254,237.42456 
		265.90848,226.36037 	"/>
	<path fill="none" stroke="#000000" stroke-miterlimit="10" d="M505.36261,329.297"/>
	<path fill="none" stroke="#000000" stroke-miterlimit="10" d="M433.47028,372.44537
		c13.70245-25.67529,40.75687-43.14838,71.89233-43.14838c38.37042,0,70.54285,26.53705,79.16528,62.25928"/>
	<path fill="none" stroke="#000000" stroke-miterlimit="10" d="M460.92798,447.36191
		c-8.21472-9.95392-13.14941-22.71509-13.14941-36.62878c0-13.23074,4.46216-25.41931,11.96362-35.14291
		c0.24017-0.31131,0.48349-0.62012,0.72986-0.92636c10.55463-13.11917,26.74216-21.51477,44.89056-21.51477
		c23.81055,0,44.24579,14.45151,53.013,35.06186"/>
	<path fill="none" stroke="#000000" stroke-miterlimit="10" d="M483.35327,442.16125
		c-2.83759-1.99084-5.39322-4.3562-7.59512-7.02432c-5.47302-6.63174-8.76074-15.13385-8.76074-24.40381
		c0-13.24283,6.70963-24.91852,16.91486-31.81302"/>
	<line fill="none" stroke="#000000" stroke-miterlimit="10" x1="290.83655" y1="435.10645" x2="152.24417" y2="382.74933"/>
	<polyline fill="none" stroke="#000000" stroke-miterlimit="10" points="147.12694,364.55356 172.83406,371.32019 
		373.58981,424.16299 	"/>
	<path fill="none" stroke="#000000" stroke-miterlimit="10" d="M373.58981,424.16299"/>
</g>
<g id="CUT">
	<line fill="none" stroke="#000000" stroke-miterlimit="10" x1="373.58978" y1="424.16296" x2="373.58978" y2="424.16296"/>
	<path fill="none" stroke="#000000" stroke-miterlimit="10" d="M433.58392,372.24078
		c-0.03699,0.06879-0.0769,0.13568-0.11365,0.20459"/>
	<line fill="none" stroke="#000000" stroke-miterlimit="10" x1="483.35321" y1="442.16119" x2="483.35327" y2="442.16125"/>
	<path fill="none" stroke="#F15E6F" stroke-miterlimit="10" d="M552.03003,227.13702l52.27631-73.9657l-488.42389,87.25836
		c-35.3493,5.46075-62.41705,36.01251-62.41705,72.89563c0,32.64029,21.19221,60.32712,50.5621,70.05286l0.01133-0.00092
		l196.48138,75.45135l73.06958-34.66565l87.12872,22.93396l13.41901,3.53217l9.2157-8.4679l60.7077-55.78149l60.24542,7.70874
		l102.95367-88.80139l-86.62-4.22003l94.5-92.41998L552.03003,227.13702"/>
	<circle fill="none" stroke="#F15E6F" stroke-miterlimit="10" cx="543.14966" cy="218.18785" r="1.41732"/>
	<circle fill="none" stroke="#F15E6F" stroke-miterlimit="10" cx="127.23504" cy="313.33206" r="4.96063"/>
</g>
</svg>
