<?xml version="1.0" encoding="utf-8"?>
<!-- Generator: Adobe Illustrator 20.1.0, SVG Export Plug-In . SVG Version: 6.00 Build 0)  -->
<svg version="1.1" id="Layer_2" xmlns="http://www.w3.org/2000/svg" xmlns:xlink="http://www.w3.org/1999/xlink" x="0px" y="0px"
	 viewBox="0 0 612 792" style="enable-background:new 0 0 612 792;" xml:space="preserve">
<style type="text/css">
	.st0{fill:none;stroke:#ED1F79;stroke-miterlimit:10;}
</style>
<g>
	<polygon points="475,207.5 463.6,207.5 452.2,227.2 452.2,227.2 463.6,246.9 475,246.9 486.4,246.9 497.8,227.2 497.8,227.2 
		486.4,207.5 	"/>
	<polygon points="524.6,224.6 536,204.8 524.6,185.1 501.8,185.1 490.5,204.8 501.8,224.6 	"/>
	<polygon points="524.6,229.8 501.8,229.8 490.5,249.5 501.8,269.3 524.6,269.3 536,249.5 	"/>
	<polygon points="524.6,274.5 501.8,274.5 490.5,294.2 501.8,314 524.6,314 536,294.2 	"/>
	<polygon points="497.8,271.9 486.4,252.2 475,252.2 463.6,252.2 452.2,271.9 452.2,271.9 463.6,291.6 475,291.6 486.4,291.6 
		497.8,271.9 	"/>
	<polygon points="524.6,319.2 501.8,319.2 490.5,338.9 501.8,358.7 524.6,358.7 536,338.9 	"/>
	<polygon points="497.8,316.6 486.4,296.9 475,296.9 463.6,296.9 452.2,316.6 452.2,316.6 463.6,336.3 475,336.3 486.4,336.3 
		497.8,316.6 	"/>
	<polygon points="524.6,363.9 501.8,363.9 490.5,383.6 501.8,403.4 524.6,403.4 536,383.6 	"/>
	<polygon points="497.8,361.3 486.4,341.6 475,341.6 463.6,341.6 452.2,361.3 452.2,361.3 463.6,381 475,381 486.4,381 497.8,361.3 
			"/>
	<polygon points="524.6,408.6 501.8,408.6 490.5,428.3 501.8,448.1 524.6,448.1 536,428.3 	"/>
	<polygon points="497.8,406 486.4,386.3 475,386.3 463.6,386.3 452.2,406 452.2,406 463.6,425.7 475,425.7 486.4,425.7 497.8,406 	
		"/>
	<polygon points="524.6,453.3 501.8,453.3 490.5,473 501.8,492.8 524.6,492.8 536,473 	"/>
	<polygon points="497.8,450.7 486.4,431 475,431 463.6,431 452.2,450.7 452.2,450.7 463.6,470.4 475,470.4 486.4,470.4 497.8,450.7 
			"/>
	<polygon points="425.4,185.1 414,204.8 425.4,224.6 448.2,224.6 459.6,204.8 448.2,185.1 	"/>
	<polygon points="398.6,252.2 387.2,252.2 375.8,271.9 375.8,271.9 387.2,291.6 398.6,291.6 410,291.6 421.3,271.9 421.3,271.9 
		410,252.2 	"/>
	<polygon points="448.2,229.8 425.4,229.8 414,249.5 425.4,269.3 448.2,269.3 459.6,249.5 	"/>
	<polygon points="448.2,274.5 425.4,274.5 414,294.2 425.4,314 448.2,314 459.6,294.2 	"/>
	<polygon points="448.2,319.2 425.4,319.2 414,338.9 425.4,358.7 448.2,358.7 459.6,338.9 	"/>
	<polygon points="421.3,316.6 410,296.9 398.6,296.9 387.2,296.9 375.8,316.6 375.8,316.6 387.2,336.3 398.6,336.3 410,336.3 
		421.3,316.6 	"/>
	<polygon points="448.2,363.9 425.4,363.9 414,383.6 425.4,403.4 448.2,403.4 459.6,383.6 	"/>
	<polygon points="421.3,361.3 410,341.6 398.6,341.6 387.2,341.6 375.8,361.3 375.8,361.3 387.2,381 398.6,381 410,381 421.3,361.3 
			"/>
	<polygon points="448.2,448.1 459.6,428.3 448.2,408.6 425.4,408.6 414,428.3 425.4,448.1 	"/>
	<polygon points="448.2,537.5 459.6,517.7 448.2,498 425.4,498 414,517.7 425.4,537.5 	"/>
	<polygon points="349,229.8 337.6,249.5 349,269.3 371.7,269.3 383.1,249.5 371.7,229.8 	"/>
	<polygon points="322.1,296.9 310.7,296.9 299.4,316.6 299.4,316.6 310.7,336.3 322.1,336.3 333.5,336.3 344.9,316.6 344.9,316.6 
		333.5,296.9 	"/>
	<polygon points="349,274.5 337.6,294.2 349,314 371.7,314 383.1,294.2 371.7,274.5 	"/>
	<polygon points="322.1,341.6 310.7,341.6 299.4,361.3 299.4,361.3 310.7,381 322.1,381 333.5,381 344.9,361.3 344.9,361.3 
		333.5,341.6 	"/>
	<polygon points="349,319.2 337.6,338.9 349,358.7 371.7,358.7 383.1,338.9 371.7,319.2 	"/>
	<polygon points="322.1,386.3 310.7,386.3 299.4,406 299.4,406 310.7,425.7 322.1,425.7 333.5,425.7 344.9,406 344.9,406 
		333.5,386.3 	"/>
	<polygon points="371.7,403.4 383.1,383.6 371.7,363.9 349,363.9 337.6,383.6 349,403.4 	"/>
	<polygon points="398.6,425.7 410,425.7 421.3,406 421.3,406 410,386.3 398.6,386.3 387.2,386.3 375.8,406 375.8,406 387.2,425.7 	
		"/>
	<polygon points="371.7,448.1 383.1,428.3 371.7,408.6 349,408.6 337.6,428.3 349,448.1 	"/>
	<polygon points="398.6,470.4 410,470.4 421.3,450.7 421.3,450.7 410,431 398.6,431 387.2,431 375.8,450.7 375.8,450.7 387.2,470.4 
			"/>
	<polygon points="371.7,492.8 383.1,473 371.7,453.3 349,453.3 337.6,473 349,492.8 	"/>
	<polygon points="398.6,515.1 410,515.1 421.3,495.4 421.3,495.4 410,475.7 398.6,475.7 387.2,475.7 375.8,495.4 375.8,495.4 
		387.2,515.1 	"/>
	<polygon points="272.5,269.3 295.3,269.3 306.7,249.5 295.3,229.8 272.5,229.8 261.1,249.5 	"/>
	<polygon points="257.1,296.9 245.7,296.9 234.3,296.9 222.9,316.6 222.9,316.6 234.3,336.3 245.7,336.3 257.1,336.3 268.5,316.6 
		268.5,316.6 	"/>
	<polygon points="257.1,341.6 245.7,341.6 234.3,341.6 222.9,361.3 222.9,361.3 234.3,381 245.7,381 257.1,381 268.5,361.3 
		268.5,361.3 	"/>
	<polygon points="295.3,403.4 306.7,383.6 295.3,363.9 272.5,363.9 261.1,383.6 272.5,403.4 	"/>
	<polygon points="272.5,448.1 295.3,448.1 306.7,428.3 295.3,408.6 272.5,408.6 261.1,428.3 	"/>
	<polygon points="322.1,470.4 333.5,470.4 344.9,450.7 344.9,450.7 333.5,431 322.1,431 310.7,431 299.4,450.7 299.4,450.7 
		310.7,470.4 	"/>
	<polygon points="295.3,492.8 306.7,473 295.3,453.3 272.5,453.3 261.1,473 272.5,492.8 	"/>
	<polygon points="322.1,515.1 333.5,515.1 344.9,495.4 344.9,495.4 333.5,475.7 322.1,475.7 310.7,475.7 299.4,495.4 299.4,495.4 
		310.7,515.1 	"/>
	<polygon points="322.1,559.8 333.5,559.8 344.9,540.1 344.9,540.1 333.5,520.4 322.1,520.4 310.7,520.4 299.4,540.1 299.4,540.1 
		310.7,559.8 	"/>
	<polygon points="295.3,582.2 306.7,562.4 295.3,542.7 272.5,542.7 261.1,562.4 272.5,582.2 	"/>
	<polygon points="196.1,274.5 184.7,294.2 196.1,314 218.9,314 230.3,294.2 218.9,274.5 	"/>
	<polygon points="245.7,425.7 257.1,425.7 268.5,406 268.5,406 257.1,386.3 245.7,386.3 234.3,386.3 222.9,406 222.9,406 
		234.3,425.7 	"/>
	<polygon points="245.7,515.1 257.1,515.1 268.5,495.4 268.5,495.4 257.1,475.7 245.7,475.7 234.3,475.7 222.9,495.4 222.9,495.4 
		234.3,515.1 	"/>
	<polygon points="119.6,319.2 108.3,338.9 119.6,358.7 142.4,358.7 153.8,338.9 142.4,319.2 	"/>
	<polygon points="169.3,381 180.6,381 192,361.3 192,361.3 180.6,341.6 169.3,341.6 157.9,341.6 146.5,361.3 146.5,361.3 157.9,381 
			"/>
</g>
<path class="st0" d="M262.1,630.7c0,0,54.5-40.8,150.6-55.4c48-7.3,125.5-11.9,132.7-10.3c7.2,1.6,6.9-410.9,6.9-410.9
	s-55.5-1.7-123,15c-51.5,12.7-159.4,57.3-207.1,77.3c-57.1,24-145.9,76.2-145.9,76.2C71,318.4,262.1,630.7,262.1,630.7z"/>
</svg>
